{"title":"Marvel's Agents of S.H.I.E.L.D S03E11 Bouncing Back 1080P WEB-DL","uid":13824777,"size":1826938150,"categoryP":"video","categoryS":"hd___tv_shows","magnet":"?xt=urn:btih:70eb5bec7c7841549aed6fa9c7dffaa1c74ff5f1&amp;dn=Marvel%27s+Agents+of+S.H.I.E.L.D+S03E11+Bouncing+Back+1080P+WEB-DL&amp;tr=udp%3A%2F%2Ftracker.leechers-paradise.org%3A6969&amp;tr=udp%3A%2F%2Fzer0day.ch%3A1337&amp;tr=udp%3A%2F%2Fopen.demonii.com%3A1337&amp;tr=udp%3A%2F%2Ftracker.coppersurfer.tk%3A6969&amp;tr=udp%3A%2F%2Fexodus.desync.com%3A6969","seeders":0,"leechers":1,"uploader":"jmanwf","files":2,"time":1457686863,"description":"Description\r\nCoulson is determined to get to Gideon Malick and put an end to Hydra once and for all. Meanwhile, Daisy and the team encounter more Inhumans who have powers they've never seen before.\r\n\r\n\r\n\r\nVideo\r\nID : 2\r\nFormat : AVC\r\nFormat/Info : Advanced Video Codec\r\nFormat profile :   \r\nFormat settings, CABAC : Yes\r\nFormat settings, ReFrames : 4 frames\r\nCodec ID : avc1\r\nCodec ID/Info : Advanced Video Coding\r\nDuration : 43mn 2s\r\nBit rate : 5 147 Kbps\r\nWidth : 1 920 pixels\r\nHeight : 1 080 pixels\r\nDisplay aspect ratio : 16:9\r\nFrame rate mode : Constant\r\nFrame rate : 23.976 fps\r\nColor space : YUV\r\nChroma subsampling : 4:2:0\r\nBit depth : 8 bits\r\nScan type : Progressive\r\nBits/(Pixel*Frame) : 0.104\r\nStream size : 1.55 GiB (91%)\r\nLanguage : English\r\nEncoded date : UTC 2016-03-09 09:02:22\r\nTagged date : UTC 2016-03-09 09:07:40\r\nColor range : Limited\r\nColor primaries : BT.709\r\nTransfer characteristics : BT.709\r\nMatrix coefficients : BT.709\r\n\r\nAudio #1\r\nID : 1\r\nFormat : AAC\r\nFormat/Info : Advanced Audio Codec\r\nFormat profile : LC\r\nCodec ID : 40\r\nDuration : 43mn 2s\r\nBit rate mode : Variable\r\nBit rate : 125 Kbps\r\nMaximum bit rate : 198 Kbps\r\nChannel(s) : 2 channels\r\nChannel positions : Front: L R\r\nSampling rate : 48.0 KHz\r\nCompression mode : Lossy\r\nStream size : 38.5 MiB (2%)\r\nLanguage : English\r\nEncoded date : UTC 2016-03-09 09:02:22\r\nTagged date : UTC 2016-03-09 09:07:40\r\n\r\nAudio #2\r\nID : 3\r\nFormat : AC-3\r\nFormat/Info : Audio Coding 3\r\nMode extension : CM (complete main)\r\nFormat settings, Endianness : Big\r\nCodec ID : ac-3\r\nDuration : 43mn 2s\r\nBit rate mode : Constant\r\nBit rate : 384 Kbps\r\nChannel(s) : 6 channels\r\nChannel positions : Front: L C R, Side: L R, LFE\r\nSampling rate : 48.0 KHz\r\nBit depth : 16 bits\r\nCompression mode : Lossy\r\nStream size : 118 MiB (7%)\r\nLanguage : English\r\nEncoded date : UTC 2016-03-09 09:02:22\r\nTagged date : UTC 2016-03-09 09:07:40\r\n\r\nText\r\nID : 4-CC1\r\nFormat : EIA-608\r\nMuxing mode : Final Cut\r\nCodec ID : c608\r\nDuration : 42mn 21s\r\nBit rate mode : Constant\r\nStream size : 0.00 Byte (0%)\r\nLanguage : English\r\nEncoded date : UTC 2016-03-09 09:02:22\r\nTagged date : UTC 2016-03-09 09:02:35","torrent":{"xt":"urn:btih:70eb5bec7c7841549aed6fa9c7dffaa1c74ff5f1","amp;dn":"Marvel%27s+Agents+of+S.H.I.E.L.D+S03E11+Bouncing+Back+1080P+WEB-DL","amp;tr":["udp%3A%2F%2Ftracker.leechers-paradise.org%3A6969","udp%3A%2F%2Fzer0day.ch%3A1337","udp%3A%2F%2Fopen.demonii.com%3A1337","udp%3A%2F%2Ftracker.coppersurfer.tk%3A6969","udp%3A%2F%2Fexodus.desync.com%3A6969"],"infoHash":"70eb5bec7c7841549aed6fa9c7dffaa1c74ff5f1","infoHashBuffer":{"type":"Buffer","data":[112,235,91,236,124,120,65,84,154,237,111,169,199,223,250,161,199,79,245,241]},"announce":[],"urlList":[]}}